<svg xmlns="http://www.w3.org/2000/svg" viewBox="0 0 24 24" fill="none" stroke="#FF007F" stroke-width="2" stroke-linecap="round" stroke-linejoin="round" class="feather feather-gears">
  <path d="M14.7 4.3a1 1 0 0 1 1.4 0l2.8 2.8a1 1 0 0 1 0 1.4l-1.6 1.6a4.2 4.2 0 0 1-.6 5.6l-2.6 2.6a1 1 0 0 1-1.4 0l-2.8-2.8a1 1 0 0 1 0-1.4l1.6-1.6a4.2 4.2 0 0 1 .6-5.6l2.6-2.6zM9.2 6.8a4.2 4.2 0 0 0-5.6.6L.6 9.8a1 1 0 0 0 0 1.4l2.8 2.8a1 1 0 0 0 1.4 0l1.6-1.6a4.2 4.2 0 0 0 .6-5.6l-2.6-2.6zM21.4 14.7a4.2 4.2 0 0 0-.6-5.6l-2.6-2.6a1 1 0 0 0-1.4 0l-1.6 1.6a4.2 4.2 0 0 0-.6 5.6l2.6 2.6a1 1 0 0 0 1.4 0l2.8-2.8a1 1 0 0 0 0-1.4zM6.8 9.2a4.2 4.2 0 0 0 .6 5.6l2.6 2.6a1 1 0 0 0 1.4 0l1.6-1.6a4.2 4.2 0 0 0 .6-5.6L9.2 6.8a1 1 0 0 0-1.4 0L6.8 8.4a1 1 0 0 0 0 1.4z"></path>
</svg>
