<svg width="200" height="200" viewBox="0 0 200 200" xmlns="http://www.w3.org/2000/svg">
  <!-- Background Circle -->
  <circle cx="100" cy="100" r="95" fill="#081028" stroke="#00c2ff" stroke-width="10"/>

  <!-- Abstract Calendar -->
  <rect x="50" y="40" width="100" height="70" fill="#0e43fb" rx="10"/>
  <line x1="50" y1="60" x2="150" y2="60" stroke="#00c2ff" stroke-width="4"/>
  <line x1="75" y1="40" x2="75" y2="110" stroke="#00c2ff" stroke-width="4"/>
  <line x1="125" y1="40" x2="125" y2="110" stroke="#00c2ff" stroke-width="4"/>

  <!-- People Icons -->
  <circle cx="60" cy="140" r="12" fill="#cb3cff"/>
  <circle cx="140" cy="140" r="12" fill="#cb3cff"/>
  <circle cx="100" cy="170" r="12" fill="#cb3cff"/>

  <!-- Stars -->
  <polygon points="100,20 105,35 120,35 107,45 112,60 100,50 88,60 93,45 80,35 95,35" fill="#ffde00"/>
  <polygon points="140,70 145,85 160,85 147,95 152,110 140,100 128,110 133,95 120,85 135,85" fill="#ffde00"/>
  <polygon points="60,70 65,85 80,85 67,95 72,110 60,100 48,110 53,95 40,85 55,85" fill="#ffde00"/>
</svg>
